<svg width="1886" height="1292" viewBox="0 0 1886 1292" fill="none" xmlns="http://www.w3.org/2000/svg">
<path d="M15.902 603.046L606.902 14.0461C634.604 -9.64065 669.016 2.48312 682.402 14.0461C743.069 75.3793 909.702 244.246 1090.9 429.046C1323.4 644.546 1126.9 827.546 1092.4 863.546C1073.2 899.146 1084.4 927.379 1092.4 937.046C1094.4 940.546 1104.1 952.446 1126.9 972.046C1161.7 997.646 1196.07 982.713 1208.9 972.046C1221.74 959.379 1252.9 927.746 1274.9 902.546C1434.1 687.346 1341.24 469.213 1274.9 387.046C1222.24 333.046 1111.7 219.646 1090.9 198.046C1069.61 173.946 1079.15 142.953 1090.9 130.546C1121.74 98.2126 1190.61 31.9485 1209.9 14.0461C1231.01 -5.53518 1262.91 3.45404 1276.4 14.0461C1467.24 205.879 1853.7 594.646 1872.9 615.046C1894.06 640.329 1883.19 673.809 1872.9 684.546C1687.24 870.379 1308.6 1249.55 1279.4 1279.55C1247.4 1300.75 1214.07 1288.38 1201.4 1279.55C1139.24 1217.38 969.202 1047.45 786.402 865.046C555.687 644.276 754.178 459.108 785.888 429.526L786.402 429.046C812.796 394.001 796.045 365.772 786.402 355.546C783.457 350.069 768.977 335.068 744.402 316.046C717.202 298.446 687.736 308.713 676.402 316.046C665.569 326.713 636.502 356.846 606.902 392.046C442.502 601.646 538.402 821.379 606.902 905.046C663.069 962.546 779.202 1082.15 794.402 1100.55C812.786 1121 806.175 1150.9 794.402 1163.55C766.902 1191.55 705.602 1253.95 680.402 1279.55C649.616 1300.44 616.74 1289.65 604.402 1279.55C420.236 1096.88 44.702 723.246 15.902 690.046C-12.898 656.846 3.90197 618.213 15.902 603.046Z" fill="black"/>
</svg>
